<svg width="14" height="16" viewBox="0 0 14 16" fill="none" xmlns="http://www.w3.org/2000/svg">
<path d="M11.1379 8.4166C11.1309 7.21777 11.674 6.31426 12.7709 5.64805C12.1574 4.76914 11.2293 4.28574 10.0059 4.19258C8.84746 4.10117 7.58008 4.86758 7.11602 4.86758C6.62559 4.86758 5.5041 4.22422 4.62168 4.22422C2.80059 4.25234 0.865234 5.67617 0.865234 8.57305C0.865234 9.4291 1.02168 10.3133 1.33457 11.2238C1.75293 12.4227 3.26113 15.36 4.83437 15.3125C5.65703 15.2932 6.23887 14.7289 7.30937 14.7289C8.34824 14.7289 8.88613 15.3125 9.80371 15.3125C11.391 15.2896 12.7551 12.6195 13.1523 11.4172C11.0236 10.4135 11.1379 8.47813 11.1379 8.4166ZM9.29043 3.05527C10.1816 1.99707 10.1008 1.03379 10.0744 0.6875C9.28691 0.733203 8.37637 1.22363 7.85781 1.82656C7.28652 2.47344 6.95078 3.27324 7.02285 4.175C7.87363 4.24004 8.65059 3.80234 9.29043 3.05527Z" fill="#1F2128"/>
</svg>
