<svg width="18" height="18" viewBox="0 0 18 18" fill="none" xmlns="http://www.w3.org/2000/svg">
<path d="M16.3541 7.53113H15.75V7.5H9V10.5H13.2386C12.6202 12.2464 10.9586 13.5 9 13.5C6.51487 13.5 4.5 11.4851 4.5 9C4.5 6.51488 6.51487 4.5 9 4.5C10.1471 4.5 11.1907 4.93275 11.9854 5.63963L14.1067 3.51825C12.7672 2.26988 10.9755 1.5 9 1.5C4.85812 1.5 1.5 4.85813 1.5 9C1.5 13.1419 4.85812 16.5 9 16.5C13.1419 16.5 16.5 13.1419 16.5 9C16.5 8.49713 16.4482 8.00625 16.3541 7.53113Z" fill="#FFC107"/>
<path d="M2.36523 5.50913L4.82936 7.31625C5.49611 5.6655 7.11086 4.5 9.00048 4.5C10.1476 4.5 11.1912 4.93275 11.9859 5.63963L14.1072 3.51825C12.7677 2.26988 10.976 1.5 9.00048 1.5C6.11973 1.5 3.62148 3.12638 2.36523 5.50913Z" fill="#FF3D00"/>
<path d="M8.99914 16.4998C10.9364 16.4998 12.6966 15.7584 14.0275 14.5528L11.7063 12.5885C10.928 13.1804 9.97694 13.5005 8.99914 13.4998C7.04839 13.4998 5.39202 12.2559 4.76802 10.52L2.32227 12.4044C3.56352 14.8333 6.08427 16.4998 8.99914 16.4998Z" fill="#4CAF50"/>
<path d="M16.3541 7.53113H15.75V7.5H9V10.5H13.2386C12.9428 11.3312 12.41 12.0574 11.706 12.5891L11.7071 12.5884L14.0284 14.5526C13.8641 14.7019 16.5 12.75 16.5 9C16.5 8.49712 16.4482 8.00625 16.3541 7.53113Z" fill="#1976D2"/>
</svg>
