<svg width="20" height="20" viewBox="0 0 20 20" fill="none" xmlns="http://www.w3.org/2000/svg">
<path d="M7.30684 17.8943V15.1342C7.30682 14.4322 7.90927 13.8617 8.6557 13.857H11.3899C12.1399 13.857 12.7478 14.4288 12.7478 15.1342V17.9028C12.7477 18.4989 13.2535 18.986 13.8871 19H15.7099C17.527 19 19 17.6146 19 15.9056V8.05405C18.9903 7.38174 18.6547 6.75041 18.0886 6.33973L11.8547 1.61677C10.7626 0.79441 9.21009 0.79441 8.11797 1.61677L1.91139 6.3483C1.34319 6.75732 1.007 7.3897 1 8.06262V15.9056C1 17.6146 2.47304 19 4.29013 19H6.11291C6.76223 19 7.28861 18.5049 7.28861 17.8943" stroke="#36373C" stroke-width="1.5" stroke-linecap="round" stroke-linejoin="round"/>
</svg>
