<svg width="17" height="17" viewBox="0 0 17 17" fill="none" xmlns="http://www.w3.org/2000/svg">
<path fill-rule="evenodd" clip-rule="evenodd" d="M4.84875 0.5495C5.7285 0.509 6.009 0.5 8.25 0.5C10.491 0.5 10.7715 0.50975 11.6505 0.5495C12.5295 0.58925 13.1295 0.7295 13.6545 0.93275C14.2042 1.1405 14.703 1.46525 15.1155 1.88525C15.5355 2.297 15.8595 2.795 16.0665 3.3455C16.2705 3.8705 16.41 4.4705 16.4505 5.348C16.491 6.22925 16.5 6.50975 16.5 8.75C16.5 10.991 16.4902 11.2715 16.4505 12.1512C16.4107 13.0287 16.2705 13.6287 16.0665 14.1537C15.8595 14.7043 15.535 15.2031 15.1155 15.6155C14.703 16.0355 14.2042 16.3595 13.6545 16.5665C13.1295 16.7705 12.5295 16.91 11.652 16.9505C10.7715 16.991 10.491 17 8.25 17C6.009 17 5.7285 16.9902 4.84875 16.9505C3.97125 16.9107 3.37125 16.7705 2.84625 16.5665C2.29569 16.3595 1.79687 16.0349 1.3845 15.6155C0.964785 15.2035 0.639986 14.7049 0.43275 14.1545C0.2295 13.6295 0.09 13.0295 0.0495 12.152C0.00899999 11.2707 0 10.9902 0 8.75C0 6.509 0.00974999 6.2285 0.0495 5.3495C0.08925 4.4705 0.2295 3.8705 0.43275 3.3455C0.640292 2.79506 0.965339 2.29648 1.38525 1.8845C1.79703 1.46488 2.29535 1.14008 2.8455 0.93275C3.3705 0.7295 3.9705 0.59 4.848 0.5495H4.84875ZM11.5837 2.0345C10.7137 1.99475 10.4528 1.9865 8.25 1.9865C6.04725 1.9865 5.78625 1.99475 4.91625 2.0345C4.1115 2.07125 3.675 2.2055 3.384 2.31875C2.99925 2.46875 2.724 2.6465 2.43525 2.93525C2.16153 3.20154 1.95089 3.52571 1.81875 3.884C1.7055 4.175 1.57125 4.6115 1.5345 5.41625C1.49475 6.28625 1.4865 6.54725 1.4865 8.75C1.4865 10.9527 1.49475 11.2137 1.5345 12.0837C1.57125 12.8885 1.7055 13.325 1.81875 13.616C1.95075 13.9737 2.1615 14.2985 2.43525 14.5647C2.7015 14.8385 3.02625 15.0492 3.384 15.1812C3.675 15.2945 4.1115 15.4287 4.91625 15.4655C5.78625 15.5052 6.0465 15.5135 8.25 15.5135C10.4535 15.5135 10.7137 15.5052 11.5837 15.4655C12.3885 15.4287 12.825 15.2945 13.116 15.1812C13.5008 15.0312 13.776 14.8535 14.0648 14.5647C14.3385 14.2985 14.5493 13.9737 14.6813 13.616C14.7945 13.325 14.9288 12.8885 14.9655 12.0837C15.0052 11.2137 15.0135 10.9527 15.0135 8.75C15.0135 6.54725 15.0052 6.28625 14.9655 5.41625C14.9288 4.6115 14.7945 4.175 14.6813 3.884C14.5313 3.49925 14.3535 3.224 14.0648 2.93525C13.7984 2.66155 13.4743 2.45091 13.116 2.31875C12.825 2.2055 12.3885 2.07125 11.5837 2.0345ZM7.19625 11.2932C7.78474 11.5382 8.44003 11.5713 9.0502 11.3868C9.66036 11.2023 10.1875 10.8117 10.5417 10.2817C10.8959 9.75168 11.055 9.11515 10.992 8.48083C10.929 7.8465 10.6478 7.25373 10.1962 6.80375C9.90843 6.51611 9.56041 6.29586 9.17725 6.15886C8.79409 6.02186 8.38532 5.97152 7.98037 6.01146C7.57542 6.0514 7.18436 6.18063 6.83535 6.38985C6.48634 6.59906 6.18806 6.88306 5.96198 7.22139C5.7359 7.55972 5.58764 7.94397 5.52789 8.34647C5.46813 8.74897 5.49836 9.15972 5.6164 9.54914C5.73445 9.93855 5.93736 10.297 6.21054 10.5985C6.48372 10.9001 6.82037 11.1374 7.19625 11.2932ZM5.2515 5.7515C5.64527 5.35773 6.11274 5.04538 6.62722 4.83227C7.14171 4.61916 7.69313 4.50948 8.25 4.50948C8.80687 4.50948 9.35829 4.61916 9.87278 4.83227C10.3873 5.04538 10.8547 5.35773 11.2485 5.7515C11.6423 6.14527 11.9546 6.61274 12.1677 7.12722C12.3808 7.64171 12.4905 8.19313 12.4905 8.75C12.4905 9.30687 12.3808 9.85829 12.1677 10.3728C11.9546 10.8873 11.6423 11.3547 11.2485 11.7485C10.4532 12.5438 9.37466 12.9905 8.25 12.9905C7.12534 12.9905 6.04675 12.5438 5.2515 11.7485C4.45625 10.9532 4.00948 9.87465 4.00948 8.75C4.00948 7.62534 4.45625 6.54675 5.2515 5.7515ZM13.431 5.141C13.5286 5.04895 13.6067 4.93826 13.6607 4.81548C13.7148 4.6927 13.7436 4.56033 13.7456 4.4262C13.7475 4.29207 13.7225 4.15891 13.6721 4.03461C13.6217 3.9103 13.5468 3.79738 13.452 3.70253C13.3571 3.60768 13.2442 3.53282 13.1199 3.48239C12.9956 3.43196 12.8624 3.40698 12.7283 3.40894C12.5942 3.41089 12.4618 3.43974 12.339 3.49377C12.2162 3.5478 12.1055 3.62592 12.0135 3.7235C11.8345 3.91327 11.7365 4.16534 11.7403 4.4262C11.7441 4.68705 11.8494 4.93616 12.0339 5.12063C12.2183 5.3051 12.4674 5.41042 12.7283 5.41422C12.9892 5.41803 13.2412 5.32002 13.431 5.141Z" fill="#1F2128"/>
</svg>
