<svg width="17" height="17" viewBox="0 0 17 17" fill="none" xmlns="http://www.w3.org/2000/svg">
<path d="M0 8.68182C0 12.1748 2.18932 15.157 5.27045 16.3305C5.19546 15.6916 5.11568 14.6382 5.2875 13.8991C5.43546 13.2636 6.24273 9.85045 6.24273 9.85045C6.24273 9.85045 5.99932 9.36295 5.99932 8.64091C5.99932 7.50909 6.65523 6.66364 7.47273 6.66364C8.16818 6.66364 8.50364 7.18523 8.50364 7.81045C8.50364 8.50932 8.05841 9.55386 7.82864 10.5227C7.63705 11.3334 8.23568 11.9948 9.03477 11.9948C10.4823 11.9948 11.5957 10.4682 11.5957 8.26454C11.5957 6.31386 10.1939 4.95091 8.19273 4.95091C5.87591 4.95091 4.51568 6.68886 4.51568 8.48545C4.51568 9.18568 4.785 9.93568 5.12182 10.3441C5.15053 10.3749 5.17082 10.4127 5.18074 10.4536C5.19065 10.4946 5.18985 10.5374 5.17841 10.578C5.11636 10.8357 4.97864 11.3886 4.95205 11.5018C4.91591 11.6505 4.83409 11.6825 4.67932 11.6102C3.66205 11.137 3.02659 9.65 3.02659 8.45545C3.02659 5.88568 4.89273 3.52659 8.4075 3.52659C11.233 3.52659 13.4291 5.54 13.4291 8.23045C13.4291 11.0375 11.6598 13.297 9.2025 13.297C8.37682 13.297 7.60159 12.8675 7.33568 12.3609C7.33568 12.3609 6.92727 13.9168 6.82841 14.2973C6.63614 15.0364 6.10295 15.9718 5.77227 16.503C6.53455 16.7375 7.34318 16.8636 8.18182 16.8636C12.7002 16.8636 16.3636 13.2002 16.3636 8.68182C16.3636 4.16341 12.7002 0.5 8.18182 0.5C3.66341 0.5 0 4.16341 0 8.68182Z" fill="#1F2128"/>
</svg>
