<svg width="17" height="14" viewBox="0 0 17 14" fill="none" xmlns="http://www.w3.org/2000/svg">
<path d="M17.25 2.10135C16.6156 2.37195 15.9342 2.5548 15.2178 2.63744C15.957 2.21163 16.51 1.54146 16.7737 0.75197C16.0792 1.1491 15.3191 1.42863 14.5264 1.57842C13.9934 1.03052 13.2874 0.66737 12.518 0.545339C11.7486 0.423309 10.9589 0.549228 10.2715 0.903549C9.58404 1.25787 9.03735 1.82077 8.71628 2.50485C8.39521 3.18893 8.31772 3.95592 8.49585 4.68674C7.08863 4.61872 5.71198 4.2666 4.45527 3.65324C3.19855 3.03988 2.08984 2.17899 1.2011 1.12643C0.897219 1.63108 0.722485 2.21617 0.722485 2.8393C0.722146 3.40025 0.86564 3.95262 1.14023 4.44738C1.41483 4.94215 1.81203 5.36401 2.29661 5.67555C1.73463 5.65833 1.18505 5.51215 0.693616 5.24916V5.29304C0.69356 6.07981 0.976254 6.84236 1.49373 7.45131C2.01121 8.06026 2.7316 8.4781 3.53266 8.63394C3.01133 8.76976 2.46476 8.78977 1.93422 8.69245C2.16024 9.36941 2.60049 9.96139 3.19334 10.3855C3.7862 10.8096 4.50198 11.0447 5.24049 11.0577C3.98684 12.0051 2.43859 12.519 0.844799 12.5168C0.562476 12.5169 0.280391 12.501 0 12.4692C1.61779 13.4706 3.50101 14.0021 5.42434 14C11.9351 14 15.4943 8.80873 15.4943 4.30643C15.4943 4.16015 15.4905 4.01241 15.4837 3.86614C16.176 3.38415 16.7736 2.78729 17.2485 2.10354L17.25 2.10135Z" fill="#1F2128"/>
</svg>
